<svg version="1.1" xmlns="http://www.w3.org/2000/svg" xmlns:xlink="http://www.w3.org/1999/xlink" preserveAspectRatio="xMidYMid meet" viewBox="1.2966667690978397 2.080188499590463 636.8659826529602 383.0499533146591" width="632.87" height="379.05"><defs><path d="M586.89 67.51C586.89 103.06 455.92 131.93 294.6 131.93C133.27 131.93 2.3 103.06 2.3 67.51C2.3 31.95 133.27 3.08 294.6 3.08C455.92 3.08 586.89 31.95 586.89 67.51Z" id="b4CdEgeef"></path><path d="M421.94 369.62C421.94 376.52 366.24 382.13 297.63 382.13C229.01 382.13 173.31 376.52 173.31 369.62C173.31 362.72 229.01 357.11 297.63 357.11C366.24 357.11 421.94 362.72 421.94 369.62Z" id="gYtUWTDqM"></path><path d="M174.52 369.17C130.6 349.75 93.11 315.11 62.03 265.26C30.96 215.41 11.61 149.49 3.98 67.51" id="a2PVmLfpr"></path><path d="M415.8 369.62C458.95 350.2 495.79 315.56 526.32 265.71C556.85 215.86 575.87 149.94 583.36 67.95" id="a9h4bQvPG8"></path><path d="M478.79 326.99C505.51 329.11 532.93 317.32 561.07 291.61C603.27 253.05 626.79 211.01 632.9 187.25C638.92 163.84 632.92 141.37 614.9 133.33C602.89 127.98 590.42 127.51 577.48 131.93" id="c1xCVkRj8K"></path></defs><g><g><use xlink:href="#b4CdEgeef" opacity="1" fill="#0a0a0a" fill-opacity="1"></use></g><g><use xlink:href="#gYtUWTDqM" opacity="1" fill="#000000" fill-opacity="1"></use></g><g><g><use xlink:href="#a2PVmLfpr" opacity="1" fill-opacity="0" stroke="#000000" stroke-width="3" stroke-opacity="1"></use></g></g><g></g><g><g><use xlink:href="#c1xCVkRj8K" opacity="1" fill-opacity="0" stroke="#000000" stroke-width="6" stroke-opacity="1"></use></g></g></g></svg>